<svg version="1.1" xmlns="http://www.w3.org/2000/svg" viewBox="0 0 1103 596" width="1103" height="596">
  <!-- svg-source:excalidraw -->
  
  <defs>
    <style>
      @font-face {
        font-family: "Virgil";
        src: url("https://excalidraw.com/Virgil.woff2");
      }
      @font-face {
        font-family: "Cascadia";
        src: url("https://excalidraw.com/Cascadia.woff2");
      }
    </style>
  </defs>
  <rect x="0" y="0" width="1103" height="596" fill="#ffffff"></rect><g stroke-linecap="round" transform="translate(178 79) rotate(0 39.5 37)"><path d="M40.99 0.75 C51.68 12.57, 64.12 22.58, 79.36 36.96 M40.16 0.94 C51.98 12.36, 63.78 23.8, 78.26 37.07 M77.15 36.61 C70.49 44.72, 63.46 55.32, 41.57 73.78 M79.89 37.5 C68.29 48.01, 59.09 56.97, 39.02 73.58 M38.08 74.89 C28.03 62.04, 18.38 52.07, -1.01 37.36 M39.52 74.56 C29.2 63.5, 19.11 54, -0.68 37.23 M-0.7 36.64 C10.76 27.98, 21.7 15.28, 40.96 -1.26 M0.42 37.27 C8.32 31.09, 15.88 23.43, 39.09 0.22" stroke="#2b8a3e" stroke-width="1" fill="none"></path></g><g transform="translate(183 103) rotate(0 34.5 13)"><text x="34.5" y="18" font-family="Virgil, Segoe UI Emoji" font-size="20px" fill="#2b8a3e" text-anchor="middle" style="white-space: pre;" direction="ltr">NW(4)</text></g><g stroke-linecap="round" transform="translate(98.5 155) rotate(0 39.5 37)"><path d="M39.66 -0.61 C49.9 9.05, 55.92 15.04, 77.42 39.37 M40.82 -0.22 C52.47 12.59, 65.52 25.24, 79.11 37.68 M77.36 39.87 C64.45 52.33, 50.7 61.36, 38.56 73.79 M79.55 38.39 C68.16 47.92, 58.14 57.93, 40.24 73.56 M41.91 72.03 C27.83 66.28, 19.26 54.78, 1.12 39.12 M40.51 73.01 C32.27 65.25, 23.42 57.94, 0.5 38.79 M-0.44 38.73 C11.61 27.39, 20.55 19.31, 40.84 -1.4 M-0.74 37.78 C14.89 25.35, 27.21 11.57, 39.22 0.37" stroke="#000000" stroke-width="1" fill="none"></path></g><g transform="translate(103.5 179) rotate(0 34.5 13)"><text x="34.5" y="18" font-family="Virgil, Segoe UI Emoji" font-size="20px" fill="#000000" text-anchor="middle" style="white-space: pre;" direction="ltr">NW(3)</text></g><g stroke-linecap="round" transform="translate(225.5 143) rotate(0 39.5 37)"><path d="M38.42 1.37 C53.46 12.14, 65.91 27.6, 78.56 38.46 M40.11 -0.32 C54.14 12.72, 67.37 24.79, 79.93 37.48 M77.56 37.79 C63.23 50.24, 48.04 66.35, 40.78 73.8 M79.24 37.56 C65.63 51.02, 52.51 63.48, 39.02 73.29 M41.12 75.12 C22.33 60.45, 6.86 46.57, -1.98 39.63 M40.5 74.79 C30.76 65.72, 22 58.23, 0.37 38.91 M0.84 36.6 C9.16 28.6, 15.04 20.67, 39.57 1.4 M-0.78 38.37 C12.86 26, 25.77 13.94, 39.98 0.27" stroke="#000000" stroke-width="1" fill="none"></path></g><g transform="translate(230.5 167) rotate(0 34.5 13)"><text x="34.5" y="18" font-family="Virgil, Segoe UI Emoji" font-size="20px" fill="#000000" text-anchor="middle" style="white-space: pre;" direction="ltr">NW(2)</text></g><g stroke-linecap="round" transform="translate(37.5 224) rotate(0 39.5 37)"><path d="M39.56 0.46 C50.59 10.97, 61.49 19.04, 78.37 38.95 M40.93 -0.52 C53.09 11.51, 63.46 23.2, 78.89 37.7 M79.78 37.8 C70.23 47.65, 61.48 55.96, 39.12 73.26 M78.02 37.29 C65.66 51.71, 50.49 65.07, 40.56 73.11 M38.02 75.63 C25.14 62.94, 12.31 51.13, 1.57 36.82 M40.37 74.91 C28.94 65.05, 19 55.48, -0.7 38.47 M-0.43 39.4 C9.69 28.06, 17.45 19.78, 40.74 -0.82 M-0.02 38.27 C12.86 26.83, 25.61 13.74, 40.71 0.71" stroke="#000000" stroke-width="1" fill="none"></path></g><g transform="translate(42.5 248) rotate(0 34.5 13)"><text x="34.5" y="18" font-family="Virgil, Segoe UI Emoji" font-size="20px" fill="#000000" text-anchor="middle" style="white-space: pre;" direction="ltr">NW(1)</text></g><g stroke-linecap="round" transform="translate(152.5 227) rotate(0 39.5 37)"><path d="M39.37 0.95 C55.63 15.37, 68.84 31.16, 77.97 39.67 M39.89 -0.3 C48.38 8.95, 58.86 18.85, 78.9 38.37 M78.12 37.26 C67.23 49.63, 54.61 60.62, 38.58 75.89 M79.56 37.11 C66.59 49.23, 54.03 60.72, 40.82 73.13 M41.57 72.82 C25.89 60.3, 12.66 50.53, 1.82 36.21 M39.3 74.47 C25.12 60.56, 10.91 48.32, 0.7 38.23 M0.74 37.18 C8.93 29.37, 17.88 22.15, 40.53 0.15 M0.71 38.71 C16.56 22.72, 30.73 7.95, 40.71 -0.36" stroke="#000000" stroke-width="1" fill="none"></path></g><g transform="translate(157.5 251) rotate(0 34.5 13)"><text x="34.5" y="18" font-family="Virgil, Segoe UI Emoji" font-size="20px" fill="#000000" text-anchor="middle" style="white-space: pre;" direction="ltr">NW(2)</text></g><g stroke-linecap="round"><g transform="translate(203 131) rotate(0 -24.981039005341017 21.26617318418809)"><path d="M-1.06 0.98 C-9.48 7.78, -41.73 34.33, -49.74 41.05 M0.58 0.44 C-8.04 7.35, -42.21 35.13, -50.55 42.09" stroke="#000000" stroke-width="1" fill="none"></path></g><g transform="translate(203 131) rotate(0 -24.981039005341017 21.26617318418809)"><path d="M-33.65 16.7 C-42.38 27.01, -47.58 35.53, -48.8 42.46 M-35.93 16.89 C-40.29 27.19, -46.31 35.27, -49.81 41.5" stroke="#000000" stroke-width="1" fill="none"></path></g><g transform="translate(203 131) rotate(0 -24.981039005341017 21.26617318418809)"><path d="M-20.62 32.55 C-34.13 36.97, -44.07 39.72, -48.8 42.46 M-22.9 32.74 C-32.31 36.98, -43.36 38.95, -49.81 41.5" stroke="#000000" stroke-width="1" fill="none"></path></g></g><g stroke-linecap="round"><g transform="translate(236.59943938736274 138.930506235034) rotate(0 6.7473571926265095 7.755825129478666)"><path d="M-0.44 -0.97 C1.67 1.44, 9.72 12.14, 11.74 14.88 M1.53 1.13 C4.09 3.72, 11.85 14.43, 13.93 16.48" stroke="#000000" stroke-width="1" fill="none"></path></g><g transform="translate(236.59943938736274 138.930506235034) rotate(0 6.7473571926265095 7.755825129478666)"><path d="M4.72 10.78 C7.5 11.86, 9.83 13.03, 12.98 16.84 M5.79 11.65 C9.28 13.44, 12.44 15.43, 14.31 16.67" stroke="#000000" stroke-width="1" fill="none"></path></g><g transform="translate(236.59943938736274 138.930506235034) rotate(0 6.7473571926265095 7.755825129478666)"><path d="M9.84 6.51 C11.5 8.52, 12.69 10.64, 12.98 16.84 M10.91 7.38 C12.35 10.82, 13.49 14.5, 14.31 16.67" stroke="#000000" stroke-width="1" fill="none"></path></g></g><g stroke-linecap="round"><g transform="translate(118.25517382100224 214.015054293694) rotate(0 -14.827094549075696 13.929021566868755)"><path d="M0.26 0.7 C-4.39 5.3, -23.87 22.07, -28.72 26.54 M-1.07 0.02 C-5.84 4.88, -25.11 23.6, -29.91 27.84" stroke="#000000" stroke-width="1" fill="none"></path></g><g transform="translate(118.25517382100224 214.015054293694) rotate(0 -14.827094549075696 13.929021566868755)"><path d="M-19.93 9.67 C-23.98 13.54, -24.43 20.36, -28.74 29.25 M-20.94 9.84 C-23.4 14.9, -24.33 18.42, -30.65 27.84" stroke="#000000" stroke-width="1" fill="none"></path></g><g transform="translate(118.25517382100224 214.015054293694) rotate(0 -14.827094549075696 13.929021566868755)"><path d="M-10.8 19.43 C-16.87 21.07, -19.42 25.65, -28.74 29.25 M-11.82 19.6 C-16.33 22.42, -19.29 23.76, -30.65 27.84" stroke="#000000" stroke-width="1" fill="none"></path></g></g><g stroke-linecap="round"><g transform="translate(156 210) rotate(0 10.835185152678719 15.742504955963227)"><path d="M0.81 0.17 C4.48 5.51, 18.55 26.96, 21.9 32.27 M-0.23 -0.78 C3.29 4.16, 17 24.6, 20.9 30.28" stroke="#000000" stroke-width="1" fill="none"></path></g><g transform="translate(156 210) rotate(0 10.835185152678719 15.742504955963227)"><path d="M5.44 18.75 C10.16 20.28, 14.28 24.33, 21.85 28.68 M4.55 18.73 C11.28 23.2, 15.23 25.56, 20.19 31.21" stroke="#000000" stroke-width="1" fill="none"></path></g><g transform="translate(156 210) rotate(0 10.835185152678719 15.742504955963227)"><path d="M16.43 11.29 C17.99 15.05, 18.93 21.26, 21.85 28.68 M15.54 11.28 C18.6 18.22, 18.89 23.06, 20.19 31.21" stroke="#000000" stroke-width="1" fill="none"></path></g></g><g stroke-linecap="round" transform="translate(262.5 10) rotate(0 39.5 37)"><path d="M39.39 1.57 C48.57 7.39, 56.43 17.24, 78.06 39.63 M40.94 -0.23 C49.83 8.79, 56.54 15.97, 79.77 38.03 M79.77 36.32 C69.66 46.01, 61.2 53.57, 41.43 74.33 M79.45 37.57 C64.76 51.69, 49.95 63.98, 39.36 73.15 M39.19 75.51 C27.65 61.66, 12.43 50.05, -1.59 36.13 M40.33 73.65 C28.6 62.21, 14.73 51.84, 0.64 38.27 M-0.94 36.77 C11.91 25.53, 22.98 17.32, 41.27 -0.33 M-0.28 37.13 C8.8 28.35, 20.17 18.68, 39.81 0.05" stroke="#2b8a3e" stroke-width="1" fill="none"></path></g><g transform="translate(267.5 34) rotate(0 34.5 13)"><text x="34.5" y="18" font-family="Virgil, Segoe UI Emoji" font-size="20px" fill="#2b8a3e" text-anchor="middle" style="white-space: pre;" direction="ltr">NW(5)</text></g><g stroke-linecap="round" transform="translate(362 74) rotate(0 39.5 37)"><path d="M40.56 -0.63 C50.57 13.26, 65.56 24.63, 80.76 37.76 M40.25 -0.83 C50.74 8.52, 60.06 18.19, 78.53 38.05 M78.74 39.88 C66.7 47.42, 59.63 57.14, 41.46 72.3 M78.63 37.01 C65.56 50.97, 51.32 63, 39.54 73.87 M38.22 73.07 C29.83 65.9, 19.31 55.9, -0.35 38.01 M39.58 74.07 C24.48 61.34, 10.24 48.32, -0.98 37.82 M0.2 36.74 C14.78 25.51, 28.9 11.96, 40.76 -1.71 M0.5 38.72 C12.04 27.76, 23.25 15.56, 40.76 0.5" stroke="#2b8a3e" stroke-width="1" fill="none"></path></g><g transform="translate(367 98) rotate(0 34.5 13)"><text x="34.5" y="18" font-family="Virgil, Segoe UI Emoji" font-size="20px" fill="#2b8a3e" text-anchor="middle" style="white-space: pre;" direction="ltr">NW(3)</text></g><g stroke-linecap="round" transform="translate(309 140) rotate(0 39.5 37)"><path d="M38.71 1.99 C55.72 15.36, 69.29 26.59, 77.86 39.64 M40.94 -0.89 C50.93 9.67, 59.75 19.98, 78.72 37.82 M77.37 37.86 C71.54 46.76, 61.75 53.88, 41.21 73.23 M79.75 38.22 C69.94 45.66, 59.39 55.03, 39.75 73.4 M40.62 75.89 C30.25 65.55, 17.61 53.69, 1.46 36.8 M39.19 74.49 C25.31 61.7, 9.76 47.38, 0.67 37.49 M-0.08 39.53 C12.26 27.88, 26.59 11.97, 39.68 0.01 M0.69 38.83 C15.21 23.01, 30.29 9.97, 39.58 -0.11" stroke="#2b8a3e" stroke-width="1" fill="none"></path></g><g transform="translate(314 164) rotate(0 34.5 13)"><text x="34.5" y="18" font-family="Virgil, Segoe UI Emoji" font-size="20px" fill="#2b8a3e" text-anchor="middle" style="white-space: pre;" direction="ltr">NW(1)</text></g><g stroke-linecap="round" transform="translate(421 146) rotate(0 39.5 37)"><path d="M41.91 1.88 C51.99 9.57, 59.56 21.66, 78.16 38.5 M40.78 -0.46 C48.36 8.65, 57.02 16.68, 78.39 37.87 M80.92 37.79 C64.79 50.46, 49.17 65.59, 38.88 73.27 M79.58 37.27 C70.98 45.18, 63.36 51.94, 39.8 73.11 M41.11 75.8 C29.39 65.25, 21.05 54.9, 1.35 37.15 M39.86 74.91 C27.04 62.97, 16.41 51.59, 0.23 38.1 M-0.63 39.91 C10.26 26.98, 18.65 19.7, 41.43 1 M0.54 37.42 C15.4 24.01, 29.12 9.25, 39.59 -0.6" stroke="#2b8a3e" stroke-width="1" fill="none"></path></g><g transform="translate(426 170) rotate(0 34.5 13)"><text x="34.5" y="18" font-family="Virgil, Segoe UI Emoji" font-size="20px" fill="#2b8a3e" text-anchor="middle" style="white-space: pre;" direction="ltr">NW(2)</text></g><g stroke-linecap="round"><g transform="translate(382.9648908089448 134.148206915311) rotate(0 -9.420711316441952 9.957237056561098)"><path d="M1.13 1.06 C-2.23 3.9, -15.79 15.28, -18.95 18.17 M0.26 0.57 C-3.37 4.06, -16.92 16.21, -19.97 19.35" stroke="#000000" stroke-width="1" fill="none"></path></g><g transform="translate(382.9648908089448 134.148206915311) rotate(0 -9.420711316441952 9.957237056561098)"><path d="M-12.86 7.27 C-17.05 13.34, -19.22 17.33, -21.07 20.6 M-14.35 7.46 C-15.38 9.8, -16.85 12.35, -19.34 18.8" stroke="#000000" stroke-width="1" fill="none"></path></g><g transform="translate(382.9648908089448 134.148206915311) rotate(0 -9.420711316441952 9.957237056561098)"><path d="M-6.59 13.87 C-13.35 17.36, -18.02 18.72, -21.07 20.6 M-8.08 14.06 C-10.49 14.98, -13.28 16.13, -19.34 18.8" stroke="#000000" stroke-width="1" fill="none"></path></g></g><g stroke-linecap="round"><g transform="translate(424.5 129) rotate(0 11.91405162244098 15.858858403791658)"><path d="M1.06 -0.14 C4.42 5.16, 17.91 27.58, 21.32 32.98 M0.16 -1.27 C3.81 4.23, 20.29 25.54, 23.67 31.38" stroke="#000000" stroke-width="1" fill="none"></path></g><g transform="translate(424.5 129) rotate(0 11.91405162244098 15.858858403791658)"><path d="M7.65 18.97 C15.83 23.59, 20.96 27.27, 25.51 29.65 M7.93 19.81 C13.62 23.83, 19.63 29.6, 22.88 31.31" stroke="#000000" stroke-width="1" fill="none"></path></g><g transform="translate(424.5 129) rotate(0 11.91405162244098 15.858858403791658)"><path d="M18.61 11.47 C22.52 19.15, 23.33 25.8, 25.51 29.65 M18.89 12.3 C20.41 19.11, 22.28 27.71, 22.88 31.31" stroke="#000000" stroke-width="1" fill="none"></path></g></g><g stroke-linecap="round"><g transform="translate(278 63) rotate(0 -21.80958270174449 16.254094057530168)"><path d="M-0.27 -0.59 C-7.73 4.72, -37.26 27.7, -44.99 33.1 M1.79 1.71 C-5.72 7.22, -37.14 26.33, -45.4 31.56" stroke="#000000" stroke-width="1" fill="none"></path></g><g transform="translate(278 63) rotate(0 -21.80958270174449 16.254094057530168)"><path d="M-29.08 11.22 C-30.9 14.58, -37.87 22.59, -43.45 30.56 M-27.16 8.86 C-31.24 13.65, -35.65 18.33, -45.15 31.92" stroke="#000000" stroke-width="1" fill="none"></path></g><g transform="translate(278 63) rotate(0 -21.80958270174449 16.254094057530168)"><path d="M-18.97 27.5 C-23.8 26.26, -33.61 29.69, -43.45 30.56 M-17.04 25.14 C-23.33 26.53, -29.81 27.87, -45.15 31.92" stroke="#000000" stroke-width="1" fill="none"></path></g></g><g stroke-linecap="round"><g transform="translate(329 66) rotate(0 23.63990655004511 16.712522499719654)"><path d="M0.43 1.1 C8.46 6.24, 40.15 26.1, 48.09 31.17 M-0.81 0.63 C7.17 5.96, 39.6 28, 47.71 32.8" stroke="#000000" stroke-width="1" fill="none"></path></g><g transform="translate(329 66) rotate(0 23.63990655004511 16.712522499719654)"><path d="M22.08 28.42 C28.55 30.09, 37.11 28.74, 49.12 30.9 M20.72 25.94 C27.27 27.02, 33.14 28.55, 48.41 33.42" stroke="#000000" stroke-width="1" fill="none"></path></g><g transform="translate(329 66) rotate(0 23.63990655004511 16.712522499719654)"><path d="M32.48 12.21 C35.96 18.64, 41.49 22.02, 49.12 30.9 M31.12 9.74 C35.19 14.48, 38.74 19.63, 48.41 33.42" stroke="#000000" stroke-width="1" fill="none"></path></g></g><g transform="translate(10 326) rotate(0 541.5 130)"><text x="0" y="18" font-family="Virgil, Segoe UI Emoji" font-size="20px" fill="#000000" text-anchor="start" style="white-space: pre;" direction="ltr">- the green recursive functions get called</text><text x="0" y="44" font-family="Virgil, Segoe UI Emoji" font-size="20px" fill="#000000" text-anchor="start" style="white-space: pre;" direction="ltr">- The result of the black recursive functions is already stored in the hash table, by the time we recal them</text><text x="0" y="70" font-family="Virgil, Segoe UI Emoji" font-size="20px" fill="#000000" text-anchor="start" style="white-space: pre;" direction="ltr"></text><text x="0" y="96" font-family="Virgil, Segoe UI Emoji" font-size="20px" fill="#000000" text-anchor="start" style="white-space: pre;" direction="ltr">if n == 1 || n ==0 </text><text x="0" y="122" font-family="Virgil, Segoe UI Emoji" font-size="20px" fill="#000000" text-anchor="start" style="white-space: pre;" direction="ltr">    return hash table value n</text><text x="0" y="148" font-family="Virgil, Segoe UI Emoji" font-size="20px" fill="#000000" text-anchor="start" style="white-space: pre;" direction="ltr">if hash table has the key n</text><text x="0" y="174" font-family="Virgil, Segoe UI Emoji" font-size="20px" fill="#000000" text-anchor="start" style="white-space: pre;" direction="ltr">    return value of hash table key n</text><text x="0" y="200" font-family="Virgil, Segoe UI Emoji" font-size="20px" fill="#000000" text-anchor="start" style="white-space: pre;" direction="ltr">else </text><text x="0" y="226" font-family="Virgil, Segoe UI Emoji" font-size="20px" fill="#000000" text-anchor="start" style="white-space: pre;" direction="ltr">    return hash table value n = NW(n-1) + NW (n-2)</text><text x="0" y="252" font-family="Virgil, Segoe UI Emoji" font-size="20px" fill="#000000" text-anchor="start" style="white-space: pre;" direction="ltr"></text></g></svg>