<svg version="1.1" xmlns="http://www.w3.org/2000/svg" viewBox="0 0 303 242" width="303" height="242">
  <!-- svg-source:excalidraw -->
  
  <defs>
    <style>
      @font-face {
        font-family: "Virgil";
        src: url("https://excalidraw.com/Virgil.woff2");
      }
      @font-face {
        font-family: "Cascadia";
        src: url("https://excalidraw.com/Cascadia.woff2");
      }
    </style>
  </defs>
  <rect x="0" y="0" width="303" height="242" fill="#ffffff"></rect><g stroke-linecap="round" transform="translate(150.5 10) rotate(0 39.5 37)"><path d="M40.99 0.75 C51.68 12.57, 64.12 22.58, 79.36 36.96 M40.16 0.94 C51.98 12.36, 63.78 23.8, 78.26 37.07 M77.15 36.61 C70.49 44.72, 63.46 55.32, 41.57 73.78 M79.89 37.5 C68.29 48.01, 59.09 56.97, 39.02 73.58 M38.08 74.89 C28.03 62.04, 18.38 52.07, -1.01 37.36 M39.52 74.56 C29.2 63.5, 19.11 54, -0.68 37.23 M-0.7 36.64 C10.76 27.98, 21.7 15.28, 40.96 -1.26 M0.42 37.27 C8.32 31.09, 15.88 23.43, 39.09 0.22" stroke="#000000" stroke-width="1" fill="none"></path></g><g transform="translate(155.5 34) rotate(0 34.5 13)"><text x="34.5" y="18" font-family="Virgil, Segoe UI Emoji" font-size="20px" fill="#000000" text-anchor="middle" style="white-space: pre;" direction="ltr">NW(4)</text></g><g stroke-linecap="round" transform="translate(71 86) rotate(0 39.5 37)"><path d="M39.66 -0.61 C49.9 9.05, 55.92 15.04, 77.42 39.37 M40.82 -0.22 C52.47 12.59, 65.52 25.24, 79.11 37.68 M77.36 39.87 C64.45 52.33, 50.7 61.36, 38.56 73.79 M79.55 38.39 C68.16 47.92, 58.14 57.93, 40.24 73.56 M41.91 72.03 C27.83 66.28, 19.26 54.78, 1.12 39.12 M40.51 73.01 C32.27 65.25, 23.42 57.94, 0.5 38.79 M-0.44 38.73 C11.61 27.39, 20.55 19.31, 40.84 -1.4 M-0.74 37.78 C14.89 25.35, 27.21 11.57, 39.22 0.37" stroke="#000000" stroke-width="1" fill="none"></path></g><g transform="translate(76 110) rotate(0 34.5 13)"><text x="34.5" y="18" font-family="Virgil, Segoe UI Emoji" font-size="20px" fill="#000000" text-anchor="middle" style="white-space: pre;" direction="ltr">NW(3)</text></g><g stroke-linecap="round" transform="translate(214 89) rotate(0 39.5 37)"><path d="M38.42 1.37 C53.46 12.14, 65.91 27.6, 78.56 38.46 M40.11 -0.32 C54.14 12.72, 67.37 24.79, 79.93 37.48 M77.56 37.79 C63.23 50.24, 48.04 66.35, 40.78 73.8 M79.24 37.56 C65.63 51.02, 52.51 63.48, 39.02 73.29 M41.12 75.12 C22.33 60.45, 6.86 46.57, -1.98 39.63 M40.5 74.79 C30.76 65.72, 22 58.23, 0.37 38.91 M0.84 36.6 C9.16 28.6, 15.04 20.67, 39.57 1.4 M-0.78 38.37 C12.86 26, 25.77 13.94, 39.98 0.27" stroke="#000000" stroke-width="1" fill="none"></path></g><g transform="translate(219 113) rotate(0 34.5 13)"><text x="34.5" y="18" font-family="Virgil, Segoe UI Emoji" font-size="20px" fill="#000000" text-anchor="middle" style="white-space: pre;" direction="ltr">NW(2)</text></g><g stroke-linecap="round" transform="translate(10 155) rotate(0 39.5 37)"><path d="M39.56 0.46 C50.59 10.97, 61.49 19.04, 78.37 38.95 M40.93 -0.52 C53.09 11.51, 63.46 23.2, 78.89 37.7 M79.78 37.8 C70.23 47.65, 61.48 55.96, 39.12 73.26 M78.02 37.29 C65.66 51.71, 50.49 65.07, 40.56 73.11 M38.02 75.63 C25.14 62.94, 12.31 51.13, 1.57 36.82 M40.37 74.91 C28.94 65.05, 19 55.48, -0.7 38.47 M-0.43 39.4 C9.69 28.06, 17.45 19.78, 40.74 -0.82 M-0.02 38.27 C12.86 26.83, 25.61 13.74, 40.71 0.71" stroke="#000000" stroke-width="1" fill="none"></path></g><g transform="translate(15 179) rotate(0 34.5 13)"><text x="34.5" y="18" font-family="Virgil, Segoe UI Emoji" font-size="20px" fill="#000000" text-anchor="middle" style="white-space: pre;" direction="ltr">NW(1)</text></g><g stroke-linecap="round" transform="translate(125 158) rotate(0 39.5 37)"><path d="M39.37 0.95 C55.63 15.37, 68.84 31.16, 77.97 39.67 M39.89 -0.3 C48.38 8.95, 58.86 18.85, 78.9 38.37 M78.12 37.26 C67.23 49.63, 54.61 60.62, 38.58 75.89 M79.56 37.11 C66.59 49.23, 54.03 60.72, 40.82 73.13 M41.57 72.82 C25.89 60.3, 12.66 50.53, 1.82 36.21 M39.3 74.47 C25.12 60.56, 10.91 48.32, 0.7 38.23 M0.74 37.18 C8.93 29.37, 17.88 22.15, 40.53 0.15 M0.71 38.71 C16.56 22.72, 30.73 7.95, 40.71 -0.36" stroke="#000000" stroke-width="1" fill="none"></path></g><g transform="translate(130 182) rotate(0 34.5 13)"><text x="34.5" y="18" font-family="Virgil, Segoe UI Emoji" font-size="20px" fill="#000000" text-anchor="middle" style="white-space: pre;" direction="ltr">NW(2)</text></g><g stroke-linecap="round"><g transform="translate(175.5 62) rotate(0 -24.981039005341017 21.26617318418809)"><path d="M-1.06 0.98 C-9.48 7.78, -41.73 34.33, -49.74 41.05 M0.58 0.44 C-8.04 7.35, -42.21 35.13, -50.55 42.09" stroke="#000000" stroke-width="1" fill="none"></path></g><g transform="translate(175.5 62) rotate(0 -24.981039005341017 21.26617318418809)"><path d="M-33.65 16.7 C-42.38 27.01, -47.58 35.53, -48.8 42.46 M-35.93 16.89 C-40.29 27.19, -46.31 35.27, -49.81 41.5" stroke="#000000" stroke-width="1" fill="none"></path></g><g transform="translate(175.5 62) rotate(0 -24.981039005341017 21.26617318418809)"><path d="M-20.62 32.55 C-34.13 36.97, -44.07 39.72, -48.8 42.46 M-22.9 32.74 C-32.31 36.98, -43.36 38.95, -49.81 41.5" stroke="#000000" stroke-width="1" fill="none"></path></g></g><g stroke-linecap="round"><g transform="translate(210.0627484031022 69.02816614434124) rotate(0 14.099541808529807 15.862639539898368)"><path d="M-0.44 -0.97 C4.13 4.14, 21.97 25.66, 26.45 31.1 M1.53 1.13 C6.54 6.42, 24.1 27.94, 28.64 32.7" stroke="#000000" stroke-width="1" fill="none"></path></g><g transform="translate(210.0627484031022 69.02816614434124) rotate(0 14.099541808529807 15.862639539898368)"><path d="M8.9 21.05 C14.79 23.25, 19.77 25.65, 26.67 33.44 M11.11 22.83 C18.59 26.49, 25.4 30.56, 29.41 33.09" stroke="#000000" stroke-width="1" fill="none"></path></g><g transform="translate(210.0627484031022 69.02816614434124) rotate(0 14.099541808529807 15.862639539898368)"><path d="M19.57 11.74 C23.12 15.98, 25.72 20.45, 26.67 33.44 M21.77 13.52 C24.99 20.78, 27.59 28.53, 29.41 33.09" stroke="#000000" stroke-width="1" fill="none"></path></g></g><g stroke-linecap="round"><g transform="translate(90.75517382100224 145.015054293694) rotate(0 -14.827094549075696 13.929021566868755)"><path d="M0.26 0.7 C-4.39 5.3, -23.87 22.07, -28.72 26.54 M-1.07 0.02 C-5.84 4.88, -25.11 23.6, -29.91 27.84" stroke="#000000" stroke-width="1" fill="none"></path></g><g transform="translate(90.75517382100224 145.015054293694) rotate(0 -14.827094549075696 13.929021566868755)"><path d="M-19.93 9.67 C-23.98 13.54, -24.43 20.36, -28.74 29.25 M-20.94 9.84 C-23.4 14.9, -24.33 18.42, -30.65 27.84" stroke="#000000" stroke-width="1" fill="none"></path></g><g transform="translate(90.75517382100224 145.015054293694) rotate(0 -14.827094549075696 13.929021566868755)"><path d="M-10.8 19.43 C-16.87 21.07, -19.42 25.65, -28.74 29.25 M-11.82 19.6 C-16.33 22.42, -19.29 23.76, -30.65 27.84" stroke="#000000" stroke-width="1" fill="none"></path></g></g><g stroke-linecap="round"><g transform="translate(128.5 141) rotate(0 10.835185152678719 15.742504955963227)"><path d="M0.81 0.17 C4.48 5.51, 18.55 26.96, 21.9 32.27 M-0.23 -0.78 C3.29 4.16, 17 24.6, 20.9 30.28" stroke="#000000" stroke-width="1" fill="none"></path></g><g transform="translate(128.5 141) rotate(0 10.835185152678719 15.742504955963227)"><path d="M5.44 18.75 C10.16 20.28, 14.28 24.33, 21.85 28.68 M4.55 18.73 C11.28 23.2, 15.23 25.56, 20.19 31.21" stroke="#000000" stroke-width="1" fill="none"></path></g><g transform="translate(128.5 141) rotate(0 10.835185152678719 15.742504955963227)"><path d="M16.43 11.29 C17.99 15.05, 18.93 21.26, 21.85 28.68 M15.54 11.28 C18.6 18.22, 18.89 23.06, 20.19 31.21" stroke="#000000" stroke-width="1" fill="none"></path></g></g></svg>